<svg xmlns="http://www.w3.org/2000/svg" viewBox="0 0 100 100">
  <!-- Easter basket with eggs like in reference image 3 -->
  <!-- Basket handle -->
  <path d="M25 35 Q50 5 75 35" fill="none" stroke="#d2691e" stroke-width="5"/>
  <path d="M25 35 Q50 10 75 35" fill="none" stroke="#deb887" stroke-width="3"/>
  <!-- Basket body - woven pattern -->
  <path d="M15 40 L15 80 Q50 95 85 80 L85 40 Q50 50 15 40" fill="#deb887" stroke="#8b4513" stroke-width="2"/>
  <!-- Woven lines -->
  <path d="M20 50 Q50 58 80 50" fill="none" stroke="#8b4513" stroke-width="1"/>
  <path d="M18 60 Q50 68 82 60" fill="none" stroke="#8b4513" stroke-width="1"/>
  <path d="M17 70 Q50 78 83 70" fill="none" stroke="#8b4513" stroke-width="1"/>
  <!-- Vertical weave lines -->
  <line x1="30" y1="40" x2="28" y2="82" stroke="#8b4513" stroke-width="1"/>
  <line x1="50" y1="45" x2="50" y2="88" stroke="#8b4513" stroke-width="1"/>
  <line x1="70" y1="40" x2="72" y2="82" stroke="#8b4513" stroke-width="1"/>
  <!-- Easter eggs -->
  <ellipse cx="35" cy="38" rx="8" ry="10" fill="#ffff00" stroke="#333" stroke-width="1"/>
  <ellipse cx="50" cy="35" rx="8" ry="10" fill="#90ee90" stroke="#333" stroke-width="1"/>
  <ellipse cx="65" cy="38" rx="8" ry="10" fill="#87ceeb" stroke="#333" stroke-width="1"/>
  <ellipse cx="42" cy="45" rx="7" ry="9" fill="#ffb6c1" stroke="#333" stroke-width="1"/>
  <ellipse cx="58" cy="45" rx="7" ry="9" fill="#dda0dd" stroke="#333" stroke-width="1"/>
  <!-- Egg patterns -->
  <line x1="32" y1="35" x2="38" y2="35" stroke="#ff6347" stroke-width="1.5"/>
  <line x1="32" y1="40" x2="38" y2="40" stroke="#ff6347" stroke-width="1.5"/>
  <circle cx="50" cy="32" r="2" fill="#228b22"/>
  <circle cx="50" cy="38" r="2" fill="#228b22"/>
</svg>
