<svg xmlns="http://www.w3.org/2000/svg" viewBox="0 0 100 100">
  <!-- Dog sitting, looking up - black silhouette -->
  <path d="M35 85 L35 65 Q32 60 30 50 Q28 45 32 40 L35 35 Q38 30 42 28 L45 20 Q48 15 52 15 Q56 15 58 18 L62 25 Q68 28 72 35 L75 40 Q78 45 76 55 Q75 60 72 65 L72 85 Z" fill="black"/>
  <!-- Tail -->
  <path d="M72 65 Q80 55 85 45 Q87 40 85 38" fill="none" stroke="black" stroke-width="6" stroke-linecap="round"/>
  <!-- Ears -->
  <path d="M42 20 Q38 12 35 8 Q34 6 36 5 Q40 6 44 12 L46 18" fill="black"/>
  <path d="M56 18 Q58 10 62 6 Q64 4 66 5 Q68 7 66 12 L60 20" fill="black"/>
</svg>
