<svg xmlns="http://www.w3.org/2000/svg" viewBox="0 0 100 100">
  <!-- Horse standing - black silhouette -->
  <!-- Body -->
  <ellipse cx="50" cy="45" rx="28" ry="18" fill="black"/>
  <!-- Neck -->
  <path d="M25 40 Q20 30 18 20 Q17 15 20 12 L28 15 Q30 20 28 35" fill="black"/>
  <!-- Head -->
  <ellipse cx="18" cy="18" rx="10" ry="8" fill="black"/>
  <!-- Snout -->
  <ellipse cx="10" cy="22" rx="6" ry="5" fill="black"/>
  <!-- Ears -->
  <path d="M15 12 L12 4 L18 8" fill="black"/>
  <path d="M22 10 L25 3 L26 10" fill="black"/>
  <!-- Mane -->
  <path d="M20 15 Q25 12 28 18 Q30 25 28 32" fill="black"/>
  <!-- Front legs -->
  <path d="M32 58 L30 85 L28 90" fill="none" stroke="black" stroke-width="6" stroke-linecap="round"/>
  <path d="M42 60 L40 85 L38 90" fill="none" stroke="black" stroke-width="6" stroke-linecap="round"/>
  <!-- Back legs -->
  <path d="M62 58 L60 85 L58 90" fill="none" stroke="black" stroke-width="6" stroke-linecap="round"/>
  <path d="M72 56 L74 85 L72 90" fill="none" stroke="black" stroke-width="6" stroke-linecap="round"/>
  <!-- Tail -->
  <path d="M78 45 Q88 50 90 60 Q92 70 88 78" fill="none" stroke="black" stroke-width="5" stroke-linecap="round"/>
</svg>
