<svg xmlns="http://www.w3.org/2000/svg" viewBox="0 0 100 100">
  <!-- Mouse sitting with round ears - black silhouette -->
  <path d="M30 85 L30 70 Q28 60 32 50 Q35 42 42 38 L45 35 Q50 32 55 32 Q62 32 68 38 Q75 45 75 58 Q76 68 74 85 Z" fill="black"/>
  <!-- Round ears -->
  <circle cx="38" cy="28" r="12" fill="black"/>
  <circle cx="62" cy="28" r="12" fill="black"/>
  <!-- Head -->
  <ellipse cx="50" cy="38" rx="15" ry="12" fill="black"/>
  <!-- Nose -->
  <path d="M50 38 Q48 42 42 44 Q40 45 38 44" fill="none" stroke="black" stroke-width="3"/>
  <!-- Long tail -->
  <path d="M30 75 Q15 70 10 60 Q5 50 8 40" fill="none" stroke="black" stroke-width="4" stroke-linecap="round"/>
</svg>
